<mxfile host="app.diagrams.net" agent="Mozilla/5.0 (Windows NT 10.0; Win64; x64) AppleWebKit/537.36 (KHTML, like Gecko) Chrome/136.0.0.0 Safari/537.36 Edg/136.0.0.0" version="26.2.15">
  <diagram id="prtHgNgQTEPvFCAcTncT" name="Page-1">
    <mxGraphModel dx="1004" dy="527" grid="1" gridSize="10" guides="1" tooltips="1" connect="1" arrows="1" fold="1" page="1" pageScale="1" pageWidth="827" pageHeight="1169" math="0" shadow="0">
      <root>
        <mxCell id="0" />
        <mxCell id="1" parent="0" />
        <mxCell id="OtAA9EBjQoQM0HZh5irV-9" style="edgeStyle=orthogonalEdgeStyle;rounded=0;orthogonalLoop=1;jettySize=auto;html=1;entryX=0.5;entryY=0;entryDx=0;entryDy=0;" edge="1" parent="1" target="OtAA9EBjQoQM0HZh5irV-5">
          <mxGeometry relative="1" as="geometry">
            <mxPoint x="414" y="120" as="sourcePoint" />
            <mxPoint x="227" y="170" as="targetPoint" />
          </mxGeometry>
        </mxCell>
        <mxCell id="OtAA9EBjQoQM0HZh5irV-10" style="edgeStyle=orthogonalEdgeStyle;rounded=0;orthogonalLoop=1;jettySize=auto;html=1;exitX=1;exitY=0.5;exitDx=0;exitDy=0;entryX=0.5;entryY=0;entryDx=0;entryDy=0;" edge="1" parent="1" target="OtAA9EBjQoQM0HZh5irV-7">
          <mxGeometry relative="1" as="geometry">
            <mxPoint x="414" y="120" as="sourcePoint" />
            <mxPoint x="507" y="220" as="targetPoint" />
          </mxGeometry>
        </mxCell>
        <mxCell id="OtAA9EBjQoQM0HZh5irV-4" value="基于Python的NBA球员数据可视化分析系统" style="rounded=0;whiteSpace=wrap;html=1;" vertex="1" parent="1">
          <mxGeometry x="326" y="30" width="176" height="60" as="geometry" />
        </mxCell>
        <mxCell id="OtAA9EBjQoQM0HZh5irV-12" value="" style="edgeStyle=orthogonalEdgeStyle;rounded=0;orthogonalLoop=1;jettySize=auto;html=1;" edge="1" parent="1" source="OtAA9EBjQoQM0HZh5irV-5" target="OtAA9EBjQoQM0HZh5irV-11">
          <mxGeometry relative="1" as="geometry">
            <Array as="points">
              <mxPoint x="220" y="220" />
              <mxPoint x="189" y="220" />
            </Array>
          </mxGeometry>
        </mxCell>
        <mxCell id="OtAA9EBjQoQM0HZh5irV-5" value="用户管理模块" style="rounded=0;whiteSpace=wrap;html=1;" vertex="1" parent="1">
          <mxGeometry x="170" y="160" width="114" height="30" as="geometry" />
        </mxCell>
        <mxCell id="OtAA9EBjQoQM0HZh5irV-19" value="" style="edgeStyle=orthogonalEdgeStyle;rounded=0;orthogonalLoop=1;jettySize=auto;html=1;" edge="1" parent="1" source="OtAA9EBjQoQM0HZh5irV-6" target="OtAA9EBjQoQM0HZh5irV-18">
          <mxGeometry relative="1" as="geometry">
            <Array as="points">
              <mxPoint x="414" y="220" />
              <mxPoint x="370" y="220" />
            </Array>
          </mxGeometry>
        </mxCell>
        <mxCell id="OtAA9EBjQoQM0HZh5irV-22" style="edgeStyle=orthogonalEdgeStyle;rounded=0;orthogonalLoop=1;jettySize=auto;html=1;entryX=0.5;entryY=0;entryDx=0;entryDy=0;" edge="1" parent="1" source="OtAA9EBjQoQM0HZh5irV-6" target="OtAA9EBjQoQM0HZh5irV-20">
          <mxGeometry relative="1" as="geometry">
            <Array as="points">
              <mxPoint x="414" y="220" />
              <mxPoint x="434" y="220" />
            </Array>
          </mxGeometry>
        </mxCell>
        <mxCell id="OtAA9EBjQoQM0HZh5irV-24" style="edgeStyle=orthogonalEdgeStyle;rounded=0;orthogonalLoop=1;jettySize=auto;html=1;exitX=0.5;exitY=1;exitDx=0;exitDy=0;entryX=0.75;entryY=0;entryDx=0;entryDy=0;" edge="1" parent="1" source="OtAA9EBjQoQM0HZh5irV-6" target="OtAA9EBjQoQM0HZh5irV-23">
          <mxGeometry relative="1" as="geometry">
            <Array as="points">
              <mxPoint x="414" y="220" />
              <mxPoint x="501" y="220" />
            </Array>
          </mxGeometry>
        </mxCell>
        <mxCell id="OtAA9EBjQoQM0HZh5irV-27" style="edgeStyle=orthogonalEdgeStyle;rounded=0;orthogonalLoop=1;jettySize=auto;html=1;entryX=0.5;entryY=0;entryDx=0;entryDy=0;" edge="1" parent="1" source="OtAA9EBjQoQM0HZh5irV-6" target="OtAA9EBjQoQM0HZh5irV-26">
          <mxGeometry relative="1" as="geometry">
            <Array as="points">
              <mxPoint x="414" y="220" />
              <mxPoint x="560" y="220" />
            </Array>
          </mxGeometry>
        </mxCell>
        <mxCell id="OtAA9EBjQoQM0HZh5irV-6" value="球员信息可视化模块" style="rounded=0;whiteSpace=wrap;html=1;" vertex="1" parent="1">
          <mxGeometry x="357" y="160" width="114" height="30" as="geometry" />
        </mxCell>
        <mxCell id="OtAA9EBjQoQM0HZh5irV-29" value="" style="edgeStyle=orthogonalEdgeStyle;rounded=0;orthogonalLoop=1;jettySize=auto;html=1;" edge="1" parent="1" source="OtAA9EBjQoQM0HZh5irV-7">
          <mxGeometry relative="1" as="geometry">
            <mxPoint x="675" y="242.5" as="targetPoint" />
          </mxGeometry>
        </mxCell>
        <mxCell id="OtAA9EBjQoQM0HZh5irV-7" value="球员未来表现预测模块" style="rounded=0;whiteSpace=wrap;html=1;" vertex="1" parent="1">
          <mxGeometry x="610" y="160" width="130" height="30" as="geometry" />
        </mxCell>
        <mxCell id="OtAA9EBjQoQM0HZh5irV-8" value="" style="endArrow=classic;html=1;rounded=0;entryX=0.5;entryY=0;entryDx=0;entryDy=0;exitX=0.5;exitY=1;exitDx=0;exitDy=0;" edge="1" parent="1" source="OtAA9EBjQoQM0HZh5irV-4" target="OtAA9EBjQoQM0HZh5irV-6">
          <mxGeometry width="50" height="50" relative="1" as="geometry">
            <mxPoint x="389" y="150" as="sourcePoint" />
            <mxPoint x="439" y="100" as="targetPoint" />
          </mxGeometry>
        </mxCell>
        <mxCell id="OtAA9EBjQoQM0HZh5irV-11" value="用户&lt;div&gt;注册&lt;/div&gt;" style="whiteSpace=wrap;html=1;rounded=0;" vertex="1" parent="1">
          <mxGeometry x="170" y="250" width="43" height="105" as="geometry" />
        </mxCell>
        <mxCell id="OtAA9EBjQoQM0HZh5irV-15" value="" style="edgeStyle=orthogonalEdgeStyle;rounded=0;orthogonalLoop=1;jettySize=auto;html=1;exitX=0.5;exitY=1;exitDx=0;exitDy=0;" edge="1" parent="1" target="OtAA9EBjQoQM0HZh5irV-16" source="OtAA9EBjQoQM0HZh5irV-5">
          <mxGeometry relative="1" as="geometry">
            <mxPoint x="284" y="190" as="sourcePoint" />
            <Array as="points">
              <mxPoint x="220" y="190" />
              <mxPoint x="220" y="220" />
              <mxPoint x="253" y="220" />
            </Array>
          </mxGeometry>
        </mxCell>
        <mxCell id="OtAA9EBjQoQM0HZh5irV-16" value="用户&lt;div&gt;登录&lt;/div&gt;" style="whiteSpace=wrap;html=1;rounded=0;" vertex="1" parent="1">
          <mxGeometry x="230" y="250" width="43" height="105" as="geometry" />
        </mxCell>
        <mxCell id="OtAA9EBjQoQM0HZh5irV-18" value="&lt;h3 style=&quot;box-sizing: border-box; line-height: 1.1; color: rgb(51, 51, 51); margin: 40px 0px 20px; padding-bottom: 9px; border-bottom: 1px solid rgb(238, 238, 238); text-align: start; background-color: rgb(255, 255, 255);&quot; class=&quot;page-header&quot;&gt;&lt;font face=&quot;Times New Roman&quot; style=&quot;font-size: 12px; font-weight: normal;&quot;&gt;场数与平均得分分布&lt;/font&gt;&lt;/h3&gt;" style="rounded=0;whiteSpace=wrap;html=1;" vertex="1" parent="1">
          <mxGeometry x="350" y="240" width="40" height="130" as="geometry" />
        </mxCell>
        <mxCell id="OtAA9EBjQoQM0HZh5irV-20" value="&lt;h3 style=&quot;box-sizing: border-box; line-height: 1.1; color: rgb(51, 51, 51); margin: 40px 0px 20px; padding-bottom: 9px; border-bottom: 1px solid rgb(238, 238, 238); text-align: start; background-color: rgb(255, 255, 255);&quot; class=&quot;page-header&quot;&gt;&lt;font face=&quot;Times New Roman&quot; style=&quot;font-size: 12px; font-weight: normal;&quot;&gt;场均篮板、助攻、抢断和盖帽的得分分布&lt;/font&gt;&lt;/h3&gt;" style="rounded=0;whiteSpace=wrap;html=1;" vertex="1" parent="1">
          <mxGeometry x="414" y="240" width="40" height="130" as="geometry" />
        </mxCell>
        <mxCell id="OtAA9EBjQoQM0HZh5irV-21" style="edgeStyle=orthogonalEdgeStyle;rounded=0;orthogonalLoop=1;jettySize=auto;html=1;exitX=0.5;exitY=1;exitDx=0;exitDy=0;" edge="1" parent="1" source="OtAA9EBjQoQM0HZh5irV-20" target="OtAA9EBjQoQM0HZh5irV-20">
          <mxGeometry relative="1" as="geometry" />
        </mxCell>
        <mxCell id="OtAA9EBjQoQM0HZh5irV-23" value="&lt;h3 style=&quot;box-sizing: border-box; line-height: 1.1; color: rgb(51, 51, 51); margin: 40px 0px 20px; padding-bottom: 9px; border-bottom: 1px solid rgb(238, 238, 238); text-align: start; background-color: rgb(255, 255, 255);&quot; class=&quot;page-header&quot;&gt;&lt;font face=&quot;Times New Roman&quot; style=&quot;font-size: 12px; font-weight: normal;&quot;&gt;平均上场时间和效率的分布&lt;/font&gt;&lt;/h3&gt;" style="rounded=0;whiteSpace=wrap;html=1;" vertex="1" parent="1">
          <mxGeometry x="471" y="240" width="39" height="130" as="geometry" />
        </mxCell>
        <mxCell id="OtAA9EBjQoQM0HZh5irV-26" value="&lt;h3 style=&quot;box-sizing: border-box; line-height: 1.1; color: rgb(51, 51, 51); margin: 40px 0px 20px; padding-bottom: 9px; border-bottom: 1px solid rgb(238, 238, 238); text-align: start; background-color: rgb(255, 255, 255);&quot; class=&quot;page-header&quot;&gt;&lt;span style=&quot;font-weight: normal;&quot;&gt;&lt;font style=&quot;font-size: 12px;&quot; face=&quot;Times New Roman&quot;&gt;三分、罚球、进攻、防守的分布&lt;/font&gt;&lt;/span&gt;&lt;/h3&gt;" style="rounded=0;whiteSpace=wrap;html=1;" vertex="1" parent="1">
          <mxGeometry x="540" y="240" width="40" height="130" as="geometry" />
        </mxCell>
        <mxCell id="OtAA9EBjQoQM0HZh5irV-30" value="&lt;h3 style=&quot;box-sizing: border-box; line-height: 1.1; color: rgb(51, 51, 51); margin: 40px 0px 20px; padding-bottom: 9px; border-bottom: 1px solid rgb(238, 238, 238); text-align: start; background-color: rgb(255, 255, 255);&quot; class=&quot;page-header&quot;&gt;&lt;font face=&quot;Times New Roman&quot; style=&quot;font-size: 12px; font-weight: normal;&quot;&gt;得分、篮板、助攻和抢断得分趋势预测&lt;/font&gt;&lt;/h3&gt;" style="rounded=0;whiteSpace=wrap;html=1;" vertex="1" parent="1">
          <mxGeometry x="660" y="240" width="40" height="130" as="geometry" />
        </mxCell>
      </root>
    </mxGraphModel>
  </diagram>
</mxfile>
